<svg width="150" height="60" viewBox="0 0 150 60" fill="none" xmlns="http://www.w3.org/2000/svg">
<rect width="9.37026" height="42.7689" rx="2" transform="matrix(0.977108 0.212746 -0.203178 0.979142 8.68964 10.4762)" fill="white"/>
<rect x="8.99976" y="20" width="9.5" height="26" rx="2" transform="rotate(-90 8.99976 20)" fill="white"/>
<path d="M46.3619 25.2381C46.3619 23.2995 46.0092 21.38 45.3239 19.589C44.6386 17.798 43.6342 16.1706 42.3679 14.7999C41.1016 13.4291 39.5984 12.3417 37.9439 11.5999C36.2895 10.858 34.5163 10.4762 32.7255 10.4762L32.7255 19.9829C33.363 19.9829 33.9943 20.1188 34.5833 20.3829C35.1723 20.647 35.7074 21.0341 36.1582 21.5221C36.609 22.0101 36.9666 22.5894 37.2106 23.227C37.4545 23.8646 37.5801 24.548 37.5801 25.2381H46.3619Z" fill="white"/>
<path d="M32.7256 39.0476C34.5163 39.0476 36.2895 38.6863 37.944 37.9844C39.5984 37.2824 41.1017 36.2535 42.3679 34.9564C43.6342 33.6593 44.6386 32.1195 45.3239 30.4248C46.0092 28.7301 46.3619 26.9137 46.3619 25.0794L37.5801 25.0794C37.5801 25.7324 37.4546 26.379 37.2106 26.9823C36.9666 27.5857 36.609 28.1338 36.1583 28.5956C35.7075 29.0574 35.1723 29.4236 34.5833 29.6735C33.9943 29.9234 33.3631 30.0521 32.7256 30.0521V39.0476Z" fill="white"/>
<rect x="23.7379" y="30.0571" width="8.9876" height="8.88889" fill="white"/>
<path d="M19.8347 33.5175L19.8347 30.7937L31.0774 33.5175L39.0906 45.2401L31.5892 50.6205L19.8347 33.5175Z" fill="white"/>
<path d="M30.3678 52.3564C29.0585 51.5821 29.0585 49.6877 30.3678 48.9134L38.1527 44.3094C39.4859 43.521 41.1708 44.482 41.1708 46.0309V55.2389C41.1708 56.7879 39.4859 57.7489 38.1527 56.9604L30.3678 52.3564Z" fill="white"/>
<path d="M24.7318 36C23.962 37.3333 22.0375 37.3333 21.2677 36L19.5357 33C18.7659 31.6667 19.7281 30 21.2677 30H24.7318C26.2714 30 27.2337 31.6667 26.4639 33L24.7318 36Z" fill="white"/>
<path d="M60.6876 24.2857H55.8984C54.9346 24.2857 54.1079 24.973 53.932 25.9206L49.2512 51.1269C49.0228 52.3567 49.9667 53.4921 51.2176 53.4921H56.2743C57.2458 53.4921 58.0768 52.7939 58.2444 51.837L62.6576 26.6306C62.8719 25.4067 61.9301 24.2857 60.6876 24.2857Z" fill="white"/>
<path d="M59.1946 0C63.8157 0.000192165 67.5617 3.97969 67.5618 8.88867C67.5618 13.7978 63.8158 17.7772 59.1946 17.7773C54.5732 17.7773 50.8264 13.7979 50.8264 8.88867C50.8265 3.97957 54.5733 0 59.1946 0ZM59.3489 4.44434C57.0383 4.4445 55.1653 6.36364 55.1653 8.73047C55.1654 11.0972 57.0384 13.0155 59.3489 13.0156C61.6595 13.0156 63.5333 11.0973 63.5334 8.73047C63.5334 6.36353 61.6596 4.44434 59.3489 4.44434Z" fill="white"/>
<path d="M60.7857 20.8329C63.0692 18.5808 64.6027 16.7098 65.6445 14.9476C66.4991 13.502 64.9761 12.1336 63.4443 12.8218L59.3349 14.668C58.7588 14.9269 58.0943 14.8984 57.5425 14.5912L54.876 13.1067C53.4198 12.296 51.8677 13.4998 52.7448 14.917C53.7473 16.537 55.4005 18.4543 58.157 20.9004C58.9149 21.5729 60.0643 21.5444 60.7857 20.8329Z" fill="white"/>
<path d="M78.4627 11.4286H73.1961C72.0075 11.4286 71.0812 12.4591 71.2074 13.641L75.2808 51.7692C75.3865 52.758 76.2026 53.5191 77.1964 53.5554L87.2156 53.9219C87.9885 53.9502 88.7084 53.5304 89.0643 52.8437L109.539 13.3473C109.652 13.1295 109.711 12.8878 109.711 12.6425C109.711 11.7967 109.025 11.1111 108.179 11.1111H101.802C101.046 11.1111 100.354 11.5379 100.015 12.2139L86.7565 38.628C85.8591 40.4159 83.1829 39.9244 82.9794 37.9343L80.4523 13.2251C80.348 12.2046 79.4885 11.4286 78.4627 11.4286Z" fill="white"/>
<path d="M127.996 10.4762C140.148 10.4762 150 20.5679 150 33.0162C149.999 45.4644 140.148 55.5553 127.996 55.5553C115.843 55.5552 105.992 45.4643 105.992 33.0162C105.992 20.568 115.843 10.4763 127.996 10.4762ZM128.151 19.9996C121.219 19.9996 115.599 25.7563 115.599 32.857C115.599 39.9579 121.219 45.7145 128.151 45.7145C135.083 45.7144 140.703 39.9578 140.703 32.857C140.703 25.7563 135.083 19.9997 128.151 19.9996Z" fill="white"/>
</svg>
